<svg width="38" height="20" viewBox="0 0 38 20" fill="none" xmlns="http://www.w3.org/2000/svg">
    <rect width="38" height="20" rx="10" fill="#00843D" />
    <path
        d="M14.8945 15.74C16.1845 15.74 17.2345 15.305 17.9395 14.21H17.9695L18.1195 15.5H19.9795V9.74H15.5095V11.69H17.5195V11.72C17.4145 12.665 16.5895 13.595 15.1945 13.595C13.5145 13.595 12.4945 12.14 12.4945 10.175C12.4945 8.225 13.3795 6.755 15.1495 6.755C16.3195 6.755 17.0395 7.415 17.2345 8.285H19.8145C19.4695 6.035 17.8195 4.565 15.0595 4.565C13.5145 4.565 12.2695 5.09 11.3845 5.99C10.3645 7.01 9.79449 8.495 9.79449 10.175C9.79449 11.81 10.3045 13.22 11.2345 14.24C12.1195 15.2 13.3645 15.74 14.8945 15.74ZM21.7741 15.5H29.2441V13.25H24.4291V4.775H21.7741V15.5Z"
        fill="white" />
</svg>