<svg width="44" height="20" viewBox="0 0 44 20" fill="none" xmlns="http://www.w3.org/2000/svg">
    <rect width="44" height="20" rx="10" fill="#00843D" />
    <path
        d="M10.4801 14.708C11.5981 14.708 12.5081 14.331 13.1191 13.382H13.1451L13.2751 14.5H14.8871V9.508H11.0131V11.198H12.7551V11.224C12.6641 12.043 11.9491 12.849 10.7401 12.849C9.28411 12.849 8.40011 11.588 8.40011 9.885C8.40011 8.195 9.16711 6.921 10.7011 6.921C11.7151 6.921 12.3391 7.493 12.5081 8.247H14.7441C14.4451 6.297 13.0151 5.023 10.6231 5.023C9.28411 5.023 8.20511 5.478 7.43811 6.258C6.55411 7.142 6.06011 8.429 6.06011 9.885C6.06011 11.302 6.50211 12.524 7.30811 13.408C8.07511 14.24 9.15411 14.708 10.4801 14.708ZM16.5091 14.5H22.9831V12.55H18.8101V5.205H16.5091V14.5ZM26.1537 12.29C27.2197 12.29 28.1037 11.406 28.1037 10.34C28.1037 9.274 27.2197 8.39 26.1537 8.39C25.0877 8.39 24.2037 9.274 24.2037 10.34C24.2037 11.406 25.0877 12.29 26.1537 12.29ZM33.934 14.708C35.247 14.708 36.196 14.344 36.911 13.655C37.548 13.044 37.964 12.199 38.029 11.276H35.728C35.624 12.173 34.948 12.823 33.921 12.823C32.543 12.823 31.685 11.588 31.685 9.885C31.685 8.195 32.4 6.934 33.908 6.934C34.896 6.934 35.546 7.571 35.663 8.403H37.964C37.847 7.363 37.379 6.453 36.573 5.842C35.91 5.335 35 5.023 33.921 5.023C31.152 5.023 29.345 7.116 29.345 9.885C29.345 12.667 31.204 14.708 33.934 14.708Z"
        fill="white" />
</svg>