<svg width="38" height="20" viewBox="0 0 38 20" fill="none" xmlns="http://www.w3.org/2000/svg">
<rect width="38" height="20" rx="10" fill="#7C878E"/>
<path d="M11.3445 15.755C13.8195 15.755 15.7395 14.51 15.7395 12.26C15.7395 9.965 13.9395 9.35 11.9445 8.885C10.3395 8.525 9.51447 8.345 9.51447 7.595C9.51447 6.995 10.1295 6.59 11.0595 6.59C12.0495 6.59 12.6795 7.055 12.7845 7.88H15.3795C15.2745 5.63 13.4745 4.58 11.1495 4.58C8.74947 4.58 6.88947 5.585 6.88947 7.88C6.88947 10.13 8.85447 10.7 10.7145 11.135C12.1845 11.495 13.0545 11.675 13.0545 12.53C13.0545 13.34 12.1995 13.655 11.3295 13.655C10.0545 13.655 9.34947 13.205 9.22947 12.125H6.55947C6.61947 14.495 8.49447 15.755 11.3445 15.755ZM17.3253 15.5H24.7953V13.25H19.9803V4.775H17.3253V15.5ZM28.1668 15.5H30.7018V5.135H28.6918C28.4368 6.53 27.3268 7.175 25.9618 7.22V8.93H28.1668V15.5Z" fill="white"/>
</svg>
