<svg width="38" height="20" viewBox="0 0 38 20" fill="none" xmlns="http://www.w3.org/2000/svg">
<rect width="38" height="20" rx="10" fill="#7C878E"/>
<path d="M10.0334 15.755C12.5084 15.755 14.4284 14.51 14.4284 12.26C14.4284 9.965 12.6284 9.35 10.6334 8.885C9.02844 8.525 8.20344 8.345 8.20344 7.595C8.20344 6.995 8.81844 6.59 9.74844 6.59C10.7384 6.59 11.3684 7.055 11.4734 7.88H14.0684C13.9634 5.63 12.1634 4.58 9.83844 4.58C7.43844 4.58 5.57844 5.585 5.57844 7.88C5.57844 10.13 7.54344 10.7 9.40344 11.135C10.8734 11.495 11.7434 11.675 11.7434 12.53C11.7434 13.34 10.8884 13.655 10.0184 13.655C8.74344 13.655 8.03844 13.205 7.91844 12.125H5.24844C5.30844 14.495 7.18344 15.755 10.0334 15.755ZM16.0143 15.5H23.4843V13.25H18.6693V4.775H16.0143V15.5ZM24.5907 15.5H32.5707V13.415H28.1007V13.4C28.8207 12.635 29.9307 12.005 30.8457 11.255C31.7607 10.55 32.5557 9.725 32.5557 8.3C32.5557 6.485 31.2207 5.015 28.7457 5.015C27.1407 5.015 26.0307 5.585 25.4457 6.425C24.9507 7.1 24.7407 7.835 24.7407 9.035H27.1107C27.1257 8.33 27.2757 7.865 27.5757 7.52C27.8307 7.205 28.2057 7.055 28.6857 7.055C29.5557 7.055 30.0207 7.595 30.0207 8.39C30.0207 8.9 29.7657 9.29 29.3457 9.665C28.5357 10.385 27.3357 11.135 26.4057 11.93C25.3857 12.785 24.6207 13.775 24.5907 15.5Z" fill="white"/>
</svg>
