<svg width="38" height="20" viewBox="0 0 38 20" fill="none" xmlns="http://www.w3.org/2000/svg">
<rect width="38" height="20" rx="10" fill="#7C878E"/>
<path d="M10.2405 15.755C12.7155 15.755 14.6355 14.51 14.6355 12.26C14.6355 9.965 12.8355 9.35 10.8405 8.885C9.23547 8.525 8.41047 8.345 8.41047 7.595C8.41047 6.995 9.02547 6.59 9.95547 6.59C10.9455 6.59 11.5755 7.055 11.6805 7.88H14.2755C14.1705 5.63 12.3705 4.58 10.0455 4.58C7.64547 4.58 5.78547 5.585 5.78547 7.88C5.78547 10.13 7.75047 10.7 9.61047 11.135C11.0805 11.495 11.9505 11.675 11.9505 12.53C11.9505 13.34 11.0955 13.655 10.2255 13.655C8.95047 13.655 8.24547 13.205 8.12547 12.125H5.45547C5.51547 14.495 7.39047 15.755 10.2405 15.755ZM16.2213 15.5H23.6913V13.25H18.8763V4.775H16.2213V15.5ZM29.5678 15.5H32.0278V13.22H33.5128V11.3H32.0278V5.12H29.5378L24.7828 10.895V13.22H29.5678V15.5ZM26.6878 11.3V11.27L29.5378 7.775H29.5678V11.3H26.6878Z" fill="white"/>
</svg>
