<svg width="38" height="20" viewBox="0 0 38 20" fill="none" xmlns="http://www.w3.org/2000/svg">
    <rect width="38" height="20" rx="10" fill="#165C96" />
    <path fill-rule="evenodd" clip-rule="evenodd"
        d="M16.0677 7.9781L16.1866 9.53176C15.1002 10.2174 14.4305 11.4544 14.4305 12.7511C14.4305 14.8524 16.142 16.5663 18.2402 16.5663C20.16 16.5663 21.7972 15.0907 22.0198 13.1984L22.9495 15.103C22.0674 16.8493 20.2212 18 18.2518 18C15.3591 18 13 15.6374 13 12.7401C13 10.7064 14.2308 8.8161 16.0677 7.9781ZM17.5541 2C18.3383 2 18.9783 2.64066 18.9783 3.42632C18.9783 4.15631 18.4165 4.7803 17.6932 4.84697L17.8547 7.71627L21.5065 7.71794V9.05759L17.9885 9.05626L18.0557 9.96192L22.9148 9.92892L24.9893 14.7249L26.5643 14.1555L27 15.1945L24.1855 16.3002L22.0417 11.2699L16.8152 11.2686C16.6773 9.3243 16.5739 7.8661 16.5049 6.89396C16.4612 6.27693 16.3955 5.35138 16.308 4.11731C16.1968 3.91131 16.1299 3.66598 16.1299 3.42632C16.1299 2.64066 16.7696 2 17.5541 2Z"
        fill="white" />
</svg>