<svg width="38" height="20" viewBox="0 0 38 20" fill="none" xmlns="http://www.w3.org/2000/svg">
    <rect width="38" height="20" rx="10" fill="#171F26" />
    <path fill-rule="evenodd" clip-rule="evenodd"
        d="M13.2993 14.1883L19.0319 4.27028C19.0793 4.18826 19.1474 4.12013 19.2294 4.07272C19.4879 3.92319 19.8187 4.01165 19.9682 4.27028L25.7008 14.1883C25.7484 14.2706 25.7734 14.364 25.7734 14.4591C25.7734 14.7578 25.5313 15 25.2326 15H13.7675C13.6724 15 13.5791 14.9749 13.4968 14.9274C13.2382 14.7778 13.1498 14.447 13.2993 14.1883ZM20.3814 8.38497C20.4134 7.87324 20.007 7.44064 19.4943 7.44064C18.9815 7.44064 18.5751 7.87324 18.6071 8.38497L18.7632 10.8826C18.7873 11.2687 19.1075 11.5694 19.4943 11.5694C19.8811 11.5694 20.2012 11.2687 20.2253 10.8826L20.3814 8.38497ZM20.2684 13.2037C20.2684 12.7762 19.9218 12.4296 19.4943 12.4296C19.0667 12.4296 18.7201 12.7762 18.7201 13.2037C18.7201 13.6313 19.0667 13.9779 19.4943 13.9779C19.9218 13.9779 20.2684 13.6313 20.2684 13.2037Z"
        fill="white" />
</svg>