<svg width="38" height="20" viewBox="0 0 38 20" fill="none" xmlns="http://www.w3.org/2000/svg">
<rect width="38" height="20" rx="10" fill="#003DA5"/>
<path d="M10.7125 15.5H16.0075C17.1325 15.5 18.0175 15.23 18.6475 14.735C19.3525 14.195 19.7425 13.415 19.7425 12.335C19.7425 11.06 18.9925 10.07 17.8225 9.71V9.665C18.7675 9.305 19.3225 8.63 19.3225 7.565C19.3225 6.71 19.0075 6.02 18.3925 5.51C17.8225 5.045 16.9975 4.775 15.8875 4.775H10.7125V15.5ZM13.3375 13.37V10.82H15.6775C16.4875 10.82 17.1175 11.255 17.1175 12.11C17.1175 12.875 16.5775 13.37 15.7075 13.37H13.3375ZM13.3375 9.02V6.875H15.5125C16.2925 6.875 16.7875 7.265 16.7875 7.94C16.7875 8.645 16.2625 9.02 15.4975 9.02H13.3375ZM21.276 15.5H28.746V13.25H23.931V4.775H21.276V15.5Z" fill="white"/>
</svg>
