<svg width="42" height="24" viewBox="0 0 42 24" fill="none" xmlns="http://www.w3.org/2000/svg">
    <g filter="url(#filter0_d_200_981)">
        <rect x="2" y="2" width="38" height="20" rx="10" fill="#003DA5" />
        <path
            d="M12.7125 17.5H18.0075C19.1325 17.5 20.0175 17.23 20.6475 16.735C21.3525 16.195 21.7425 15.415 21.7425 14.335C21.7425 13.06 20.9925 12.07 19.8225 11.71V11.665C20.7675 11.305 21.3225 10.63 21.3225 9.565C21.3225 8.71 21.0075 8.02 20.3925 7.51C19.8225 7.045 18.9975 6.775 17.8875 6.775H12.7125V17.5ZM15.3375 15.37V12.82H17.6775C18.4875 12.82 19.1175 13.255 19.1175 14.11C19.1175 14.875 18.5775 15.37 17.7075 15.37H15.3375ZM15.3375 11.02V8.875H17.5125C18.2925 8.875 18.7875 9.265 18.7875 9.94C18.7875 10.645 18.2625 11.02 17.4975 11.02H15.3375ZM23.276 17.5H30.746V15.25H25.931V6.775H23.276V17.5Z"
            fill="white" />
    </g>
    <defs>
        <filter id="filter0_d_200_981" x="0" y="0" width="42" height="24" filterUnits="userSpaceOnUse"
            color-interpolation-filters="sRGB">
            <feFlood flood-opacity="0" result="BackgroundImageFix" />
            <feColorMatrix in="SourceAlpha" type="matrix" values="0 0 0 0 0 0 0 0 0 0 0 0 0 0 0 0 0 0 127 0"
                result="hardAlpha" />
            <feOffset />
            <feGaussianBlur stdDeviation="1" />
            <feComposite in2="hardAlpha" operator="out" />
            <feColorMatrix type="matrix" values="0 0 0 0 0.180392 0 0 0 0 0.243137 0 0 0 0 0.301961 0 0 0 0.4 0" />
            <feBlend mode="normal" in2="BackgroundImageFix" result="effect1_dropShadow_200_981" />
            <feBlend mode="normal" in="SourceGraphic" in2="effect1_dropShadow_200_981" result="shape" />
        </filter>
    </defs>
</svg>