<svg width="38" height="20" viewBox="0 0 38 20" fill="none" xmlns="http://www.w3.org/2000/svg">
<rect width="38" height="20" rx="10" fill="#FFC72C"/>
<path fill-rule="evenodd" clip-rule="evenodd" d="M25.3998 9.21692L24.7781 4.35129C24.6201 3.47334 24.0638 3.13075 23.2362 2.77146C21.8799 2.28822 20.4499 2.02748 19.0051 2C17.558 2.02779 16.1258 2.2885 14.767 2.77146C13.9497 3.12397 13.3933 3.4732 13.2251 4.35115L12.6 9.21692V15.9483H13.6973V17.1207C13.6988 17.6023 14.1016 17.9923 14.5989 17.9936C15.0962 17.9922 15.499 17.6021 15.5004 17.1206V15.9482H22.5323V17.1206C22.5299 17.434 22.7012 17.7246 22.9811 17.882C23.261 18.0393 23.6066 18.0393 23.8865 17.882C24.1664 17.7246 24.3377 17.434 24.3353 17.1206V15.9482H25.4L25.3998 9.21692ZM16.3709 3.23052H21.6598C21.8836 3.23052 22.0651 3.40623 22.0651 3.62297C22.0651 3.83972 21.8836 4.01543 21.6598 4.01543H16.3709C16.1471 4.01543 15.9656 3.83972 15.9656 3.62297C15.9656 3.40623 16.1471 3.23052 16.3709 3.23052ZM13.7367 9.07392L14.2517 5.23263C14.2946 4.99044 14.5128 4.81429 14.7666 4.81691H23.3083C23.5614 4.81438 23.7786 4.99085 23.82 5.23263L24.3349 9.07392C24.3418 9.11801 24.3418 9.16286 24.3349 9.20695V9.23353C24.3355 9.36568 24.2814 9.49255 24.1846 9.5857C24.0878 9.67886 23.9565 9.73052 23.82 9.72912H14.2279C14.0912 9.72312 13.9625 9.6647 13.8704 9.56673C13.7782 9.46876 13.7302 9.33931 13.7367 9.20695C13.7299 9.16285 13.7299 9.11801 13.7367 9.07392ZM14.5989 13.8664C14.0688 13.8673 13.6383 13.4519 13.6373 12.9385C13.6363 12.4252 14.0652 12.0082 14.5953 12.0072C15.1255 12.0063 15.556 12.4216 15.5571 12.935C15.5577 13.1816 15.4571 13.4183 15.2774 13.593C15.0977 13.7677 14.8536 13.8661 14.5989 13.8664ZM22.4741 12.9362C22.4744 12.4233 22.9037 12.0076 23.4333 12.0072C23.963 12.0069 24.3928 12.4221 24.3939 12.935C24.3945 13.1822 24.2934 13.4195 24.1128 13.5943C23.9323 13.7691 23.6872 13.867 23.4319 13.8664C22.9024 13.8653 22.4737 13.4491 22.4741 12.9362Z" fill="#171F26"/>
</svg>
