<svg width="42" height="24" viewBox="0 0 42 24" fill="none" xmlns="http://www.w3.org/2000/svg">
    <g filter="url(#filter0_d_317_12596)">
        <rect x="2" y="2" width="38" height="20" rx="10" fill="#FFC72C" />
        <path fill-rule="evenodd" clip-rule="evenodd"
            d="M27.3998 11.2169L26.7781 6.35129C26.6201 5.47334 26.0638 5.13075 25.2362 4.77146C23.8799 4.28822 22.4499 4.02748 21.0051 4C19.558 4.02779 18.1258 4.2885 16.767 4.77146C15.9497 5.12397 15.3933 5.4732 15.2251 6.35115L14.6 11.2169V17.9483H15.6973V19.1207C15.6988 19.6023 16.1016 19.9923 16.5989 19.9936C17.0962 19.9922 17.499 19.6021 17.5004 19.1206V17.9482H24.5323V19.1206C24.5299 19.434 24.7012 19.7246 24.9811 19.882C25.261 20.0393 25.6066 20.0393 25.8865 19.882C26.1664 19.7246 26.3377 19.434 26.3353 19.1206V17.9482H27.4L27.3998 11.2169ZM18.3709 5.23052H23.6598C23.8836 5.23052 24.0651 5.40623 24.0651 5.62297C24.0651 5.83972 23.8836 6.01543 23.6598 6.01543H18.3709C18.1471 6.01543 17.9656 5.83972 17.9656 5.62297C17.9656 5.40623 18.1471 5.23052 18.3709 5.23052ZM15.7367 11.0739L16.2517 7.23263C16.2946 6.99044 16.5128 6.81429 16.7666 6.81691H25.3083C25.5614 6.81438 25.7786 6.99085 25.82 7.23263L26.3349 11.0739C26.3418 11.118 26.3418 11.1629 26.3349 11.2069V11.2335C26.3355 11.3657 26.2814 11.4925 26.1846 11.5857C26.0878 11.6789 25.9565 11.7305 25.82 11.7291H16.2279C16.0912 11.7231 15.9625 11.6647 15.8704 11.5667C15.7782 11.4688 15.7302 11.3393 15.7367 11.2069C15.7299 11.1629 15.7299 11.118 15.7367 11.0739ZM16.5989 15.8664C16.0688 15.8673 15.6383 15.4519 15.6373 14.9385C15.6363 14.4252 16.0652 14.0082 16.5953 14.0072C17.1255 14.0063 17.556 14.4216 17.5571 14.935C17.5577 15.1816 17.4571 15.4183 17.2774 15.593C17.0977 15.7677 16.8536 15.8661 16.5989 15.8664ZM24.4741 14.9362C24.4744 14.4233 24.9037 14.0076 25.4333 14.0072C25.963 14.0069 26.3928 14.4221 26.3939 14.935C26.3945 15.1822 26.2934 15.4195 26.1128 15.5943C25.9323 15.7691 25.6872 15.867 25.4319 15.8664C24.9024 15.8653 24.4737 15.4491 24.4741 14.9362Z"
            fill="#171F26" />
    </g>
    <defs>
        <filter id="filter0_d_317_12596" x="0" y="0" width="42" height="24" filterUnits="userSpaceOnUse"
            color-interpolation-filters="sRGB">
            <feFlood flood-opacity="0" result="BackgroundImageFix" />
            <feColorMatrix in="SourceAlpha" type="matrix" values="0 0 0 0 0 0 0 0 0 0 0 0 0 0 0 0 0 0 127 0"
                result="hardAlpha" />
            <feOffset />
            <feGaussianBlur stdDeviation="1" />
            <feComposite in2="hardAlpha" operator="out" />
            <feColorMatrix type="matrix" values="0 0 0 0 0.180392 0 0 0 0 0.243137 0 0 0 0 0.301961 0 0 0 0.4 0" />
            <feBlend mode="normal" in2="BackgroundImageFix" result="effect1_dropShadow_317_12596" />
            <feBlend mode="normal" in="SourceGraphic" in2="effect1_dropShadow_317_12596" result="shape" />
        </filter>
    </defs>
</svg>