<svg width="38" height="20" viewBox="0 0 38 20" fill="none" xmlns="http://www.w3.org/2000/svg">
    <rect width="38" height="20" rx="10" fill="#802772" />
    <path
        d="M13.5471 15.74C15.0621 15.74 16.1571 15.32 16.9821 14.525C17.7171 13.82 18.1971 12.845 18.2721 11.78H15.6171C15.4971 12.815 14.7171 13.565 13.5321 13.565C11.9421 13.565 10.9521 12.14 10.9521 10.175C10.9521 8.225 11.7771 6.77 13.5171 6.77C14.6571 6.77 15.4071 7.505 15.5421 8.465H18.1971C18.0621 7.265 17.5221 6.215 16.5921 5.51C15.8271 4.925 14.7771 4.565 13.5321 4.565C10.3371 4.565 8.25215 6.98 8.25215 10.175C8.25215 13.385 10.3971 15.74 13.5471 15.74ZM19.7194 15.5H22.3744V11.48H23.9794C25.1194 11.48 25.6294 12.02 25.7644 13.01C25.9294 14.075 25.8844 15.335 26.1694 15.5H28.7494V15.365C28.3744 15.23 28.5244 13.88 28.2994 12.47C28.1494 11.405 27.6694 10.82 26.7394 10.505V10.46C27.9844 10.025 28.5994 9.11 28.5994 7.865C28.5994 5.87 26.9794 4.775 24.8494 4.775H19.7194V15.5ZM22.3744 9.515V6.875H24.4294C25.4494 6.875 25.9594 7.43 25.9594 8.21C25.9594 9.02 25.4194 9.515 24.3694 9.515H22.3744Z"
        fill="white" />
</svg>