<svg width="38" height="20" viewBox="0 0 38 20" fill="none" xmlns="http://www.w3.org/2000/svg">
<rect width="38" height="20" rx="10" fill="#008EAA"/>
<path fill-rule="evenodd" clip-rule="evenodd" d="M17.0832 4.45295V5.58697H15.8396V6.46623L18.9975 5.13235L22.1557 6.46623V5.58697H20.9067V4.45295H17.0832ZM20.0295 15.3837C19.3979 15.7651 18.5972 15.7651 17.9655 15.3837C17.4107 15.0778 16.726 15.0971 16.1905 15.4337C15.5644 15.7819 14.79 15.7625 14.1832 15.3837C13.6534 15.0802 12.9948 15.0802 12.465 15.3837C12.1798 15.5617 11.8495 15.6604 11.5103 15.6687V14.1697C11.8269 14.1677 12.1383 14.0924 12.4185 13.9499C13.6776 13.2305 14.2658 14.0948 14.9624 14.0898V10.5927L13.8994 8.06989C13.8211 7.90933 13.8119 7.72524 13.8738 7.55812C13.9357 7.39099 14.0637 7.25451 14.2295 7.17872C14.2481 7.1702 14.2671 7.16251 14.2865 7.15565L14.9366 6.88585V4.68783H16.1595V3.53871H17.9139V2H20.0811V3.53871H21.8355V4.68783H23.0791V6.87099L23.7293 7.14073C24.0878 7.26815 24.2717 7.65277 24.1401 7.99985C24.133 8.01855 24.1251 8.03693 24.1163 8.05497L23.048 10.5777V14.0748C23.7394 14.0748 24.3019 13.2006 25.5919 13.9199C25.8714 14.0647 26.1831 14.1418 26.5 14.1447V15.6435C26.1617 15.6303 25.8327 15.5321 25.5455 15.3585C25.0141 15.0603 24.3585 15.0603 23.8271 15.3585C23.2204 15.7373 22.446 15.7567 21.8199 15.4085C21.2754 15.0749 20.5836 15.0653 20.0295 15.3837ZM20.0295 17.6917C19.3741 18.0545 18.5693 18.0545 17.9139 17.6917C17.3731 17.3656 16.6825 17.3872 16.1647 17.7467C15.5386 18.0949 14.7642 18.0756 14.1574 17.6968C13.6262 17.3939 12.9629 17.4113 12.4495 17.7417C12.1651 17.9128 11.8346 17.998 11.5 17.9867V16.4179C11.8189 16.4371 12.1361 16.3604 12.4082 16.1983C13.0635 15.7836 13.6569 15.8636 14.4722 16.3032C15.0421 16.5381 15.6924 16.5031 16.2318 16.2083C16.9593 15.8185 17.3566 15.9135 18.1203 16.2632C18.6573 16.5333 19.2965 16.5333 19.8335 16.2632C20.5969 15.9135 21.0151 15.8185 21.7427 16.2083C22.2781 16.5036 22.9257 16.5387 23.4919 16.3032C24.3175 15.8635 24.9161 15.8036 25.556 16.1983C25.8257 16.3657 26.1447 16.4429 26.4641 16.418V17.9865C26.1161 18.0096 25.7693 17.9257 25.4734 17.7467C24.9667 17.4187 24.3106 17.4012 23.786 17.7017C23.1793 18.0807 22.4048 18.0999 21.7788 17.7517C21.2593 17.3985 20.5735 17.3751 20.0295 17.6917Z" fill="white"/>
</svg>
