<svg width="44" height="20" viewBox="0 0 44 20" fill="none" xmlns="http://www.w3.org/2000/svg">
    <rect width="44" height="20" rx="10" fill="#00843D" />
    <path
        d="M10.4625 14.708C11.5805 14.708 12.4905 14.331 13.1015 13.382H13.1275L13.2575 14.5H14.8695V9.508H10.9955V11.198H12.7375V11.224C12.6465 12.043 11.9315 12.849 10.7225 12.849C9.26653 12.849 8.38253 11.588 8.38253 9.885C8.38253 8.195 9.14953 6.921 10.6835 6.921C11.6975 6.921 12.3215 7.493 12.4905 8.247H14.7265C14.4275 6.297 12.9975 5.023 10.6055 5.023C9.26653 5.023 8.18753 5.478 7.42053 6.258C6.53653 7.142 6.04253 8.429 6.04253 9.885C6.04253 11.302 6.48453 12.524 7.29053 13.408C8.05753 14.24 9.13653 14.708 10.4625 14.708ZM16.4915 14.5H22.9655V12.55H18.7925V5.205H16.4915V14.5ZM26.1361 12.29C27.2021 12.29 28.0861 11.406 28.0861 10.34C28.0861 9.274 27.2021 8.39 26.1361 8.39C25.0701 8.39 24.1861 9.274 24.1861 10.34C24.1861 11.406 25.0701 12.29 26.1361 12.29ZM29.7044 14.5H36.8284V12.55H32.0054V10.561H36.0744V8.767H32.0054V7.103H36.7504V5.205H29.7044V14.5Z"
        fill="white" />
</svg>