<svg width="44" height="20" viewBox="0 0 44 20" fill="none" xmlns="http://www.w3.org/2000/svg">
    <rect width="44" height="20" rx="10" fill="#00843D" />
    <path
        d="M10.6832 14.708C11.8012 14.708 12.7112 14.331 13.3222 13.382H13.3482L13.4782 14.5H15.0902V9.508H11.2162V11.198H12.9582V11.224C12.8672 12.043 12.1522 12.849 10.9432 12.849C9.48723 12.849 8.60323 11.588 8.60323 9.885C8.60323 8.195 9.37023 6.921 10.9042 6.921C11.9182 6.921 12.5422 7.493 12.7112 8.247H14.9472C14.6482 6.297 13.2182 5.023 10.8262 5.023C9.48723 5.023 8.40823 5.478 7.64123 6.258C6.75723 7.142 6.26323 8.429 6.26323 9.885C6.26323 11.302 6.70523 12.524 7.51123 13.408C8.27823 14.24 9.35723 14.708 10.6832 14.708ZM16.7122 14.5H23.1862V12.55H19.0132V5.205H16.7122V14.5ZM26.3568 12.29C27.4228 12.29 28.3068 11.406 28.3068 10.34C28.3068 9.274 27.4228 8.39 26.3568 8.39C25.2908 8.39 24.4068 9.274 24.4068 10.34C24.4068 11.406 25.2908 12.29 26.3568 12.29ZM29.9251 14.5H34.5141C35.4891 14.5 36.2561 14.266 36.8021 13.837C37.4131 13.369 37.7511 12.693 37.7511 11.757C37.7511 10.652 37.1011 9.794 36.0871 9.482V9.443C36.9061 9.131 37.3871 8.546 37.3871 7.623C37.3871 6.882 37.1141 6.284 36.5811 5.842C36.0871 5.439 35.3721 5.205 34.4101 5.205H29.9251V14.5ZM32.2001 12.654V10.444H34.2281C34.9301 10.444 35.4761 10.821 35.4761 11.562C35.4761 12.225 35.0081 12.654 34.2541 12.654H32.2001ZM32.2001 8.884V7.025H34.0851C34.7611 7.025 35.1901 7.363 35.1901 7.948C35.1901 8.559 34.7351 8.884 34.0721 8.884H32.2001Z"
        fill="white" />
</svg>