<svg width="44" height="20" viewBox="0 0 44 20" fill="none" xmlns="http://www.w3.org/2000/svg">
    <rect width="44" height="20" rx="10" fill="#00843D" />
    <path
        d="M10.4611 14.708C11.5791 14.708 12.4891 14.331 13.1001 13.382H13.1261L13.2561 14.5H14.8681V9.508H10.9941V11.198H12.7361V11.224C12.6451 12.043 11.9301 12.849 10.7211 12.849C9.26507 12.849 8.38107 11.588 8.38107 9.885C8.38107 8.195 9.14807 6.921 10.6821 6.921C11.6961 6.921 12.3201 7.493 12.4891 8.247H14.7251C14.4261 6.297 12.9961 5.023 10.6041 5.023C9.26507 5.023 8.18607 5.478 7.41907 6.258C6.53507 7.142 6.04107 8.429 6.04107 9.885C6.04107 11.302 6.48307 12.524 7.28907 13.408C8.05607 14.24 9.13507 14.708 10.4611 14.708ZM16.49 14.5H22.964V12.55H18.791V5.205H16.49V14.5ZM26.1346 12.29C27.2006 12.29 28.0846 11.406 28.0846 10.34C28.0846 9.274 27.2006 8.39 26.1346 8.39C25.0686 8.39 24.1846 9.274 24.1846 10.34C24.1846 11.406 25.0686 12.29 26.1346 12.29ZM32.0039 12.563V7.129H33.3819C34.8249 7.129 35.6439 8.221 35.6439 9.911C35.6439 11.614 34.8639 12.563 33.3559 12.563H32.0039ZM29.7029 14.5H33.5249C34.6949 14.5 35.6309 14.201 36.3589 13.655C37.3989 12.862 37.9709 11.549 37.9709 9.911C37.9709 7.064 36.2419 5.205 33.6679 5.205H29.7029V14.5Z"
        fill="white" />
</svg>