<svg width="38" height="20" viewBox="0 0 38 20" fill="none" xmlns="http://www.w3.org/2000/svg">
    <rect width="38" height="20" rx="10" fill="#DA291C" />
    <path
        d="M13.4801 15.5H15.8651V10.115C15.8651 9.68 15.8201 7.955 15.8201 7.955H15.8501C15.8501 7.955 16.2251 9.575 16.3451 9.965L17.8751 15.5H20.0651L21.6101 9.95C21.7301 9.56 22.1051 7.955 22.1051 7.955H22.1351C22.1351 7.955 22.0901 9.665 22.0901 10.1V15.5H24.5201V4.775H20.9201L19.6001 9.47C19.4201 10.145 19.0001 11.915 19.0001 11.915H18.9701C18.9701 11.915 18.5501 10.145 18.3551 9.47L17.0501 4.775H13.4801V15.5Z"
        fill="white" />
</svg>