<svg width="38" height="20" viewBox="0 0 38 20" fill="none" xmlns="http://www.w3.org/2000/svg">
    <rect width="38" height="20" rx="10" fill="#ED8B00" />
    <path
        d="M15.0163 13.595C13.2913 13.595 12.4063 12.11 12.4063 10.16C12.4063 8.21 13.2913 6.71 15.0163 6.71C16.7563 6.71 17.6113 8.21 17.6113 10.16C17.6113 12.11 16.7563 13.595 15.0163 13.595ZM15.0013 15.755C18.2563 15.755 20.3113 13.37 20.3113 10.16C20.3113 6.95 18.2563 4.565 15.0013 4.565C11.7613 4.565 9.70625 6.95 9.70625 10.16C9.70625 13.37 11.7613 15.755 15.0013 15.755ZM21.8473 15.5H29.3173V13.25H24.5023V4.775H21.8473V15.5Z"
        fill="white" />
</svg>