<svg width="38" height="20" viewBox="0 0 38 20" fill="none" xmlns="http://www.w3.org/2000/svg">
    <rect width="38" height="20" rx="10" fill="#DA291C" />
    <path
        d="M10.7125 15.5H13.3675V11.48H14.9725C16.1125 11.48 16.6225 12.02 16.7575 13.01C16.9225 14.075 16.8775 15.335 17.1625 15.5H19.7425V15.365C19.3675 15.23 19.5175 13.88 19.2925 12.47C19.1425 11.405 18.6625 10.82 17.7325 10.505V10.46C18.9775 10.025 19.5925 9.11 19.5925 7.865C19.5925 5.87 17.9725 4.775 15.8425 4.775H10.7125V15.5ZM13.3675 9.515V6.875H15.4225C16.4425 6.875 16.9525 7.43 16.9525 8.21C16.9525 9.02 16.4125 9.515 15.3625 9.515H13.3675ZM21.276 15.5H28.746V13.25H23.931V4.775H21.276V15.5Z"
        fill="white" />
</svg>