<svg width="38" height="20" viewBox="0 0 38 20" fill="none" xmlns="http://www.w3.org/2000/svg">
    <rect width="38" height="20" rx="10" fill="#7C878E" />
    <path
        d="M15.1413 15.755C17.6163 15.755 19.5363 14.51 19.5363 12.26C19.5363 9.965 17.7363 9.35 15.7413 8.885C14.1363 8.525 13.3113 8.345 13.3113 7.595C13.3113 6.995 13.9263 6.59 14.8563 6.59C15.8463 6.59 16.4763 7.055 16.5813 7.88H19.1763C19.0713 5.63 17.2713 4.58 14.9463 4.58C12.5463 4.58 10.6863 5.585 10.6863 7.88C10.6863 10.13 12.6513 10.7 14.5113 11.135C15.9813 11.495 16.8513 11.675 16.8513 12.53C16.8513 13.34 15.9963 13.655 15.1263 13.655C13.8513 13.655 13.1463 13.205 13.0263 12.125H10.3563C10.4163 14.495 12.2913 15.755 15.1413 15.755ZM21.1222 15.5H28.5922V13.25H23.7772V4.775H21.1222V15.5Z"
        fill="white" />
</svg>