<svg width="38" height="20" viewBox="0 0 38 20" fill="none" xmlns="http://www.w3.org/2000/svg">
<rect width="38" height="20" rx="10" fill="#7C878E"/>
<path d="M10.4016 15.755C12.8766 15.755 14.7966 14.51 14.7966 12.26C14.7966 9.965 12.9966 9.35 11.0016 8.885C9.3966 8.525 8.5716 8.345 8.5716 7.595C8.5716 6.995 9.1866 6.59 10.1166 6.59C11.1066 6.59 11.7366 7.055 11.8416 7.88H14.4366C14.3316 5.63 12.5316 4.58 10.2066 4.58C7.8066 4.58 5.9466 5.585 5.9466 7.88C5.9466 10.13 7.9116 10.7 9.7716 11.135C11.2416 11.495 12.1116 11.675 12.1116 12.53C12.1116 13.34 11.2566 13.655 10.3866 13.655C9.1116 13.655 8.4066 13.205 8.2866 12.125H5.6166C5.6766 14.495 7.5516 15.755 10.4016 15.755ZM16.3825 15.5H23.8525V13.25H19.0375V4.775H16.3825V15.5ZM29.2189 15.74C31.3789 15.74 33.2839 14.72 33.2839 12.515C33.2839 11.135 32.5489 10.34 31.4239 9.995V9.965C32.3389 9.605 32.9839 8.96 32.9839 7.91C32.9839 6.095 31.4389 5.015 29.1739 5.015C26.6239 5.015 25.1989 6.44 25.1539 8.48H27.5089C27.5689 7.595 28.0489 6.905 29.1439 6.905C29.9989 6.905 30.4939 7.37 30.4939 8.075C30.4939 8.855 29.8639 9.275 28.9039 9.275H28.3489V11.03H28.9639C30.0889 11.03 30.7189 11.48 30.7189 12.38C30.7189 13.235 30.1489 13.805 29.1139 13.805C27.8239 13.805 27.2839 13.04 27.2239 11.945H24.8389C24.8389 13.13 25.2289 14.09 25.9789 14.75C26.6989 15.395 27.7639 15.74 29.2189 15.74Z" fill="white"/>
</svg>
