<svg width="38" height="20" viewBox="0 0 38 20" fill="none" xmlns="http://www.w3.org/2000/svg">
<rect width="38" height="20" rx="10" fill="#7C878E"/>
<path d="M10.3723 15.755C12.8473 15.755 14.7673 14.51 14.7673 12.26C14.7673 9.965 12.9673 9.35 10.9723 8.885C9.3673 8.525 8.5423 8.345 8.5423 7.595C8.5423 6.995 9.15731 6.59 10.0873 6.59C11.0773 6.59 11.7073 7.055 11.8123 7.88H14.4073C14.3023 5.63 12.5023 4.58 10.1773 4.58C7.7773 4.58 5.9173 5.585 5.9173 7.88C5.9173 10.13 7.8823 10.7 9.74231 11.135C11.2123 11.495 12.0823 11.675 12.0823 12.53C12.0823 13.34 11.2273 13.655 10.3573 13.655C9.0823 13.655 8.3773 13.205 8.2573 12.125H5.5873C5.6473 14.495 7.5223 15.755 10.3723 15.755ZM16.3532 15.5H23.8232V13.25H19.0082V4.775H16.3532V15.5ZM29.1446 15.74C31.6046 15.74 33.2996 14.27 33.2996 11.99C33.2996 9.815 31.7246 8.465 29.7596 8.465C28.8296 8.465 28.1396 8.735 27.7646 9.08H27.7346L28.0946 7.25H32.6546V5.225H26.2796L25.2296 10.91H27.5996C27.8696 10.565 28.4096 10.28 29.0696 10.28C30.0596 10.28 30.7496 10.925 30.7496 11.975C30.7496 13.01 30.1046 13.73 29.0846 13.73C28.1696 13.73 27.4346 13.295 27.2696 12.425H24.7946C25.0346 14.615 26.7896 15.74 29.1446 15.74Z" fill="white"/>
</svg>
