<svg width="38" height="20" viewBox="0 0 38 20" fill="none" xmlns="http://www.w3.org/2000/svg">
<rect width="38" height="20" rx="10" fill="#7C878E"/>
<path d="M8.04026 15.238C10.3503 15.238 12.1423 14.076 12.1423 11.976C12.1423 9.834 10.4623 9.26 8.60026 8.826C7.10226 8.49 6.33226 8.322 6.33226 7.622C6.33226 7.062 6.90626 6.684 7.77426 6.684C8.69826 6.684 9.28626 7.118 9.38426 7.888H11.8063C11.7083 5.788 10.0283 4.808 7.85826 4.808C5.61826 4.808 3.88226 5.746 3.88226 7.888C3.88226 9.988 5.71626 10.52 7.45226 10.926C8.82426 11.262 9.63626 11.43 9.63626 12.228C9.63626 12.984 8.83826 13.278 8.02626 13.278C6.83626 13.278 6.17826 12.858 6.06626 11.85H3.57426C3.63026 14.062 5.38026 15.238 8.04026 15.238ZM13.6557 15H20.6277V12.9H16.1337V4.99H13.6557V15ZM23.2137 15H25.6497L26.6997 10.198C26.8677 9.4 27.0357 8.336 27.0357 8.336H27.0637C27.0637 8.336 27.2317 9.4 27.4137 10.198L28.4637 15H30.8857L33.6297 4.99H31.1377L30.1437 9.162C29.9197 10.156 29.6397 11.668 29.6397 11.668H29.6117C29.6117 11.668 29.3597 10.282 29.1357 9.26L28.1977 4.99H25.9017L24.9637 9.288C24.7397 10.296 24.4737 11.668 24.4737 11.668H24.4457C24.4457 11.668 24.2077 10.156 23.9837 9.19L22.9757 4.99H20.4697L23.2137 15Z" fill="white"/>
</svg>
